#!OML:ASF F:\VICON\USERDATA\INSTALL\rory3\rory3.ASF
:FULLY-SPECIFIED
:DEGREES
261
root 0.136901 16.3399 10.3055 -167.934 -11.4013 -175.812
lowerback 1.87826 -0.662807 0.391971
upperback -1.73772 -0.892751 3.1133
thorax -2.79582 -0.462978 3.02565
lowerneck -9.97386 -0.132903 -4.38024
upperneck 31.3926 -3.33567 4.05635
head 12.0694 -2.48037 1.65149
rclavicle 2.49972e-014 1.07344e-014
rhumerus -326.273 -74.1598 245.136
rradius 16.239
rwrist -27.5795
rhand -28.8699 21.9537
rfingers 7.12502
rthumb -2.22605 -8.01444
lclavicle 2.49972e-014 1.07344e-014
lhumerus 26.3524 51.6233 122.847
lradius 12.2296
lwrist -7.42475
lhand -28.0737 26.6115
lfingers 7.12502
lthumb -1.45712 56.5862
rfemur -45.3167 -2.99522 33.3863
rtibia 55.2648
rfoot -17.8024 -23.0097
rtoes 25.9744
lfemur -52.138 -9.24793 -14.4674
ltibia 55.617
lfoot -19.0897 12.1911
ltoes -23.7449
262
root 0.142826 16.3092 10.1416 -168.365 -11.2425 -175.562
lowerback 1.85224 -0.462891 0.294974
upperback -1.51113 -0.638319 3.33376
thorax -2.55714 -0.338236 3.29491
lowerneck -9.67886 -0.279367 -4.98533
upperneck 31.2286 -3.48563 4.28146
head 11.9638 -2.59168 1.82537
rclavicle 3.78685e-014 7.95139e-015
rhumerus -338.54 -65.6236 254.871
rradius 17.767
rwrist -35.9045
rhand -30.5461 20.9883
rfingers 7.12502
rthumb -3.84481 -8.95672
lclavicle 3.78685e-014 7.95139e-015
lhumerus 20.1215 39.4366 118.436
lradius 14.115
lwrist 3.10485
lhand -27.8725 27.2541
lfingers 7.12502
lthumb -1.26282 57.2301
rfemur -44.1817 -3.35379 34.1144
rtibia 55.2126
rfoot -19.1487 -23.427
rtoes 26.487
lfemur -53.37 -9.75814 -13.7029
ltibia 53.5821
lfoot -16.501 12.3103
ltoes -25.3993
263
root 0.158422 16.2961 9.97854 -168.81 -10.8977 -175.654
lowerback 1.85642 -0.243138 -0.320092
upperback -1.31688 -0.365666 3.52055
thorax -2.3706 -0.193377 3.82379
lowerneck -9.03377 -0.396199 -5.41632
upperneck 30.8811 -3.57691 4.28615
head 11.7045 -2.68781 1.89546
rclavicle 4.58199e-014 -5.1684e-015
rhumerus -292.186 -76.8447 205.532
rradius 14.3087
rwrist -17.9914
rhand -22.2463 19.4707
rfingers 7.12502
rthumb 4.17094 -10.4682
lclavicle 4.58199e-014 -5.1684e-015
lhumerus 18.9671 34.5708 119.918
lradius 14.9033
lwrist 5.18388
lhand -28.1374 29.9832
lfingers 7.12502
lthumb -1.51865 59.9575
rfemur -43.0494 -3.43946 34.3283
rtibia 55.1179
rfoot -20.4553 -23.7764
rtoes 27.5266
lfemur -54.2775 -9.99913 -13.3556
ltibia 51.4658
lfoot -13.5244 12.2297
ltoes -26.6937
264
root 0.170201 16.2912 9.8065 -169.461 -11.2604 -176.009
lowerback 2.21856 -0.291093 -0.873767
upperback -1.20152 -0.437829 3.59357
thorax -2.44712 -0.21746 4.21948
lowerneck -8.52359 -0.415462 -5.86167
upperneck 30.7568 -3.60392 4.4153
head 11.562 -2.75287 2.02096
rclavicle -1.32192e-014 -3.85642e-014
rhumerus -316.108 -72.2757 227.087
rradius 14.7382
rwrist -23.8502
rhand -25.7192 20.4337
rfingers 7.12502
rthumb 0.816905 -9.54449
lclavicle -1.32192e-014 -3.85642e-014
lhumerus 19.9183 34.0753 123.578
lradius 13.8536
lwrist 2.30869
lhand -26.7632 26.9889
lfingers 7.12502
lthumb -0.191391 56.9686
rfemur -41.6735 -3.98779 34.2737
rtibia 55.0304
rfoot -21.578 -24.4886
rtoes 27.9769
lfemur -54.8491 -10.9077 -13.1927
ltibia 49.3141
lfoot -10.6676 12.0806
ltoes -25.8545
265
root 0.175252 16.2637 9.64667 -169.976 -10.9008 -176.028
lowerback 3.14034 0.0130819 -0.990201
upperback -1.52629 -0.019972 3.59238
thorax -3.33639 0.00910951 4.27697
lowerneck -8.23928 -0.47449 -6.19241
upperneck 31.1586 -3.80394 4.49199
head 11.6834 -2.91918 2.08094
rclavicle 2.23633e-015 -3.77691e-014
rhumerus -313.88 -72.9264 222.243
rradius 13.6033
rwrist -19.3204
rhand -24.8804 20.7489
rfingers 7.12502
rthumb 1.62713 -9.22462
lclavicle 2.23633e-015 -3.77691e-014
lhumerus 16.3859 24.818 122.234
lradius 16.0843
lwrist 8.23163
lhand -25.5121 26.887
lfingers 7.12502
lthumb 1.017 56.8643
rfemur -40.434 -4.06801 34.5225
rtibia 54.9861
rfoot -22.1511 -25.1249
rtoes 27.1978
lfemur -55.6027 -11.303 -12.6064
ltibia 47.3759
lfoot -8.25924 12.3948
ltoes -21.196
266
root 0.189023 16.2322 9.48155 -170.615 -10.8027 -176.224
lowerback 4.30641 0.194059 -0.932491
upperback -1.7953 0.247363 3.20632
thorax -4.29412 0.160106 3.83258
lowerneck -8.18119 -0.580941 -5.87925
upperneck 31.4028 -4.10249 4.49516
head 11.783 -3.03998 1.98789
rclavicle 9.29318e-015 -1.27222e-014
rhumerus -337.184 -61.3344 243.106
rradius 15.3903
rwrist -31.9216
rhand -27.1063 18.6607
rfingers 7.12502
rthumb -0.522722 -11.3184
lclavicle 9.29318e-015 -1.27222e-014
lhumerus 16.644 23.898 124.707
lradius 14.9529
lwrist 4.57045
lhand -24.8635 25.3866
lfingers 7.12502
lthumb 1.6434 55.36
rfemur -39.0245 -4.09841 34.5467
rtibia 55.0731
rfoot -23.3157 -25.6364
rtoes 27.2873
lfemur -56.1915 -11.9152 -12.147
ltibia 45.6788
lfoot -6.8596 13.0254
ltoes -10.9147
